<svg width="40" height="40" viewBox="0 0 40 40" fill="none" xmlns="http://www.w3.org/2000/svg">
<rect width="40" height="40" rx="5" fill="url(#paint0_linear_720_1657)"/>
<path d="M28.3312 24.1004V26.6004C28.3322 26.8325 28.2846 27.0622 28.1917 27.2749C28.0987 27.4875 27.9623 27.6784 27.7913 27.8353C27.6203 27.9922 27.4184 28.1116 27.1985 28.186C26.9787 28.2603 26.7457 28.288 26.5146 28.2671C23.9503 27.9884 21.4871 27.1122 19.3229 25.7087C17.3094 24.4293 15.6024 22.7222 14.3229 20.7087C12.9146 18.5347 12.0381 16.0596 11.7646 13.4837C11.7438 13.2533 11.7711 13.021 11.845 12.8018C11.9188 12.5825 12.0376 12.381 12.1935 12.2101C12.3495 12.0392 12.5394 11.9027 12.7511 11.8092C12.9627 11.7157 13.1915 11.6673 13.4229 11.6671H15.9229C16.3273 11.6631 16.7194 11.8063 17.026 12.07C17.3327 12.3337 17.533 12.6999 17.5896 13.1004C17.6951 13.9005 17.8908 14.686 18.1729 15.4421C18.285 15.7403 18.3093 16.0645 18.2428 16.3761C18.1764 16.6878 18.022 16.9738 17.7979 17.2004L16.7396 18.2587C17.9259 20.345 19.6533 22.0724 21.7396 23.2587L22.7979 22.2004C23.0245 21.9764 23.3105 21.8219 23.6222 21.7555C23.9338 21.689 24.258 21.7133 24.5562 21.8254C25.3123 22.1075 26.0979 22.3032 26.8979 22.4087C27.3027 22.4658 27.6724 22.6697 27.9367 22.9817C28.201 23.2936 28.3414 23.6917 28.3312 24.1004Z" stroke="white" stroke-width="1.66667" stroke-linecap="round" stroke-linejoin="round"/>
<defs>
<linearGradient id="paint0_linear_720_1657" x1="0" y1="20" x2="40" y2="20" gradientUnits="userSpaceOnUse">
<stop stop-color="#9D4A9A"/>
<stop offset="1" stop-color="#652D8E"/>
</linearGradient>
</defs>
</svg>
