<svg width="14" height="15" viewBox="0 0 14 15" fill="none" xmlns="http://www.w3.org/2000/svg">
<path d="M1.33691 8.66848C1.21075 8.66891 1.08706 8.63354 0.980211 8.56647C0.873359 8.4994 0.787731 8.40339 0.733275 8.28959C0.67882 8.17579 0.657771 8.04888 0.672575 7.92359C0.68738 7.7983 0.737429 7.67979 0.816909 7.58182L7.41691 0.781818C7.46642 0.724672 7.53388 0.686055 7.60823 0.672306C7.68258 0.658557 7.75939 0.670493 7.82606 0.706154C7.89273 0.741815 7.9453 0.799082 7.97513 0.868556C8.00497 0.93803 8.01029 1.01558 7.99024 1.08848L6.71024 5.10182C6.6725 5.20283 6.65982 5.3115 6.6733 5.41849C6.68678 5.52548 6.72602 5.6276 6.78764 5.7161C6.84926 5.8046 6.93142 5.87683 7.02709 5.92659C7.12276 5.97636 7.22907 6.00217 7.33691 6.00182H12.0036C12.1297 6.00139 12.2534 6.03676 12.3603 6.10383C12.4671 6.1709 12.5528 6.26691 12.6072 6.38071C12.6617 6.49451 12.6827 6.62143 12.6679 6.74671C12.6531 6.872 12.6031 6.99051 12.5236 7.08848L5.92358 13.8885C5.87407 13.9456 5.8066 13.9842 5.73225 13.998C5.65791 14.0117 5.58109 13.9998 5.51442 13.9641C5.44775 13.9285 5.39519 13.8712 5.36535 13.8017C5.33552 13.7323 5.33019 13.6547 5.35024 13.5818L6.63024 9.56848C6.66799 9.46747 6.68066 9.3588 6.66718 9.25181C6.6537 9.14482 6.61447 9.0427 6.55285 8.9542C6.49123 8.8657 6.40906 8.79347 6.31339 8.74371C6.21772 8.69395 6.11141 8.66813 6.00358 8.66848H1.33691Z" stroke="white" stroke-width="1.33333" stroke-linecap="round" stroke-linejoin="round"/>
</svg>
