<svg width="14" height="14" viewBox="0 0 14 14" fill="none" xmlns="http://www.w3.org/2000/svg">
<path d="M8.75033 1.16675H5.25033C4.92816 1.16675 4.66699 1.42792 4.66699 1.75008V2.91675C4.66699 3.23891 4.92816 3.50008 5.25033 3.50008H8.75033C9.07249 3.50008 9.33366 3.23891 9.33366 2.91675V1.75008C9.33366 1.42792 9.07249 1.16675 8.75033 1.16675Z" stroke="#652D8E" stroke-width="1.16667" stroke-linecap="round" stroke-linejoin="round"/>
<path d="M9.33301 2.33325H10.4997C10.8091 2.33325 11.1058 2.45617 11.3246 2.67496C11.5434 2.89375 11.6663 3.1905 11.6663 3.49992V11.6666C11.6663 11.976 11.5434 12.2728 11.3246 12.4915C11.1058 12.7103 10.8091 12.8333 10.4997 12.8333H3.49967C3.19026 12.8333 2.89351 12.7103 2.67472 12.4915C2.45592 12.2728 2.33301 11.976 2.33301 11.6666V3.49992C2.33301 3.1905 2.45592 2.89375 2.67472 2.67496C2.89351 2.45617 3.19026 2.33325 3.49967 2.33325H4.66634" stroke="#652D8E" stroke-width="1.16667" stroke-linecap="round" stroke-linejoin="round"/>
<path d="M7 6.41675H9.33333" stroke="#652D8E" stroke-width="1.16667" stroke-linecap="round" stroke-linejoin="round"/>
<path d="M7 9.33325H9.33333" stroke="#652D8E" stroke-width="1.16667" stroke-linecap="round" stroke-linejoin="round"/>
<path d="M4.66699 6.41675H4.67283" stroke="#652D8E" stroke-width="1.16667" stroke-linecap="round" stroke-linejoin="round"/>
<path d="M4.66699 9.33325H4.67283" stroke="#652D8E" stroke-width="1.16667" stroke-linecap="round" stroke-linejoin="round"/>
</svg>
