<svg width="14" height="14" viewBox="0 0 14 14" fill="none" xmlns="http://www.w3.org/2000/svg">
<g clip-path="url(#clip0_2465_5501)">
<path d="M12.8328 9.86989V11.6199C12.8335 11.7824 12.8002 11.9432 12.7351 12.092C12.6701 12.2409 12.5746 12.3745 12.4549 12.4843C12.3352 12.5941 12.1938 12.6778 12.04 12.7298C11.8861 12.7819 11.723 12.8012 11.5612 12.7866C9.76617 12.5915 8.04193 11.9781 6.52701 10.9957C5.11758 10.1001 3.92263 8.90516 3.02701 7.49573C2.04117 5.97393 1.42766 4.24131 1.23618 2.43823C1.2216 2.27692 1.24077 2.11434 1.29247 1.96084C1.34417 1.80735 1.42726 1.6663 1.53646 1.54667C1.64566 1.42705 1.77857 1.33147 1.92672 1.26603C2.07488 1.20059 2.23505 1.16671 2.39701 1.16656H4.14701C4.43011 1.16377 4.70456 1.26402 4.91921 1.44862C5.13386 1.63322 5.27406 1.88957 5.31368 2.16989C5.38754 2.72993 5.52453 3.27982 5.72201 3.80906C5.8005 4.01785 5.81748 4.24476 5.77096 4.46291C5.72443 4.68105 5.61635 4.88129 5.45951 5.03989L4.71868 5.78073C5.54909 7.24113 6.75828 8.45032 8.21868 9.28073L8.95951 8.53989C9.11812 8.38306 9.31835 8.27497 9.5365 8.22845C9.75465 8.18192 9.98156 8.19891 10.1903 8.27739C10.7196 8.47488 11.2695 8.61186 11.8295 8.68573C12.1129 8.7257 12.3717 8.86843 12.5567 9.08677C12.7417 9.3051 12.8399 9.58381 12.8328 9.86989Z" stroke="#652D8E" stroke-width="1.16667" stroke-linecap="round" stroke-linejoin="round"/>
</g>
<defs>
<clipPath id="clip0_2465_5501">
<rect width="14" height="14" fill="white"/>
</clipPath>
</defs>
</svg>
