<svg width="14" height="14" viewBox="0 0 14 14" fill="none" xmlns="http://www.w3.org/2000/svg">
<path d="M9.33366 12.25V11.0833C9.33366 10.4645 9.08783 9.871 8.65024 9.43342C8.21266 8.99583 7.61916 8.75 7.00033 8.75H3.50033C2.88149 8.75 2.28799 8.99583 1.85041 9.43342C1.41282 9.871 1.16699 10.4645 1.16699 11.0833V12.25" stroke="#652D8E" stroke-width="1.16667" stroke-linecap="round" stroke-linejoin="round"/>
<path d="M5.25033 6.41667C6.53899 6.41667 7.58366 5.372 7.58366 4.08333C7.58366 2.79467 6.53899 1.75 5.25033 1.75C3.96166 1.75 2.91699 2.79467 2.91699 4.08333C2.91699 5.372 3.96166 6.41667 5.25033 6.41667Z" stroke="#652D8E" stroke-width="1.16667" stroke-linecap="round" stroke-linejoin="round"/>
<path d="M9.33301 6.41667L10.4997 7.58333L12.833 5.25" stroke="#652D8E" stroke-width="1.16667" stroke-linecap="round" stroke-linejoin="round"/>
</svg>
