<svg width="14" height="14" viewBox="0 0 14 14" fill="none" xmlns="http://www.w3.org/2000/svg">
<path d="M7 4.08325V12.2499" stroke="#652D8E" stroke-width="1.16667" stroke-linecap="round" stroke-linejoin="round"/>
<path d="M1.75033 10.5C1.59562 10.5 1.44724 10.4385 1.33785 10.3291C1.22845 10.2197 1.16699 10.0714 1.16699 9.91667V2.33333C1.16699 2.17862 1.22845 2.03025 1.33785 1.92085C1.44724 1.81146 1.59562 1.75 1.75033 1.75H4.66699C5.28583 1.75 5.87932 1.99583 6.31691 2.43342C6.75449 2.871 7.00033 3.46449 7.00033 4.08333C7.00033 3.46449 7.24616 2.871 7.68374 2.43342C8.12133 1.99583 8.71482 1.75 9.33366 1.75H12.2503C12.405 1.75 12.5534 1.81146 12.6628 1.92085C12.7722 2.03025 12.8337 2.17862 12.8337 2.33333V9.91667C12.8337 10.0714 12.7722 10.2197 12.6628 10.3291C12.5534 10.4385 12.405 10.5 12.2503 10.5H8.75033C8.2862 10.5 7.84108 10.6844 7.51289 11.0126C7.1847 11.3408 7.00033 11.7859 7.00033 12.25C7.00033 11.7859 6.81595 11.3408 6.48776 11.0126C6.15957 10.6844 5.71445 10.5 5.25033 10.5H1.75033Z" stroke="#652D8E" stroke-width="1.16667" stroke-linecap="round" stroke-linejoin="round"/>
</svg>
