<svg width="32" height="32" viewBox="0 0 32 32" fill="none" xmlns="http://www.w3.org/2000/svg">
<mask id="path-1-inside-1_2571_4801" fill="white">
<path d="M22.0563 6.2091C19.8265 4.77256 17.1677 4.15359 14.5327 4.45767C11.8977 4.76174 9.44975 5.97004 7.6058 7.87669C5.76186 9.78334 4.63607 12.2704 4.42025 14.914C4.20442 17.5577 4.91193 20.1944 6.42221 22.3748C7.93248 24.5553 10.1521 26.1447 12.7028 26.8721C15.2536 27.5995 17.9776 27.42 20.4109 26.3641C22.8441 25.3083 24.8359 23.4414 26.047 21.0816C27.2581 18.7217 27.6134 16.015 27.0526 13.4225L25.3575 13.7893C25.8335 15.9896 25.5319 18.2868 24.504 20.2897C23.4761 22.2925 21.7856 23.877 19.7205 24.7732C17.6553 25.6693 15.3434 25.8217 13.1785 25.2043C11.0136 24.5869 9.12974 23.238 7.84792 21.3873C6.56611 19.5367 5.96563 17.2989 6.14881 15.0551C6.33198 12.8114 7.28747 10.7006 8.85247 9.08236C10.4175 7.46414 12.4952 6.43862 14.7315 6.18054C16.9679 5.92247 19.2245 6.4478 21.117 7.66703L22.0563 6.2091Z"/>
</mask>
<path d="M22.0563 6.2091C19.8265 4.77256 17.1677 4.15359 14.5327 4.45767C11.8977 4.76174 9.44975 5.97004 7.6058 7.87669C5.76186 9.78334 4.63607 12.2704 4.42025 14.914C4.20442 17.5577 4.91193 20.1944 6.42221 22.3748C7.93248 24.5553 10.1521 26.1447 12.7028 26.8721C15.2536 27.5995 17.9776 27.42 20.4109 26.3641C22.8441 25.3083 24.8359 23.4414 26.047 21.0816C27.2581 18.7217 27.6134 16.015 27.0526 13.4225L25.3575 13.7893C25.8335 15.9896 25.5319 18.2868 24.504 20.2897C23.4761 22.2925 21.7856 23.877 19.7205 24.7732C17.6553 25.6693 15.3434 25.8217 13.1785 25.2043C11.0136 24.5869 9.12974 23.238 7.84792 21.3873C6.56611 19.5367 5.96563 17.2989 6.14881 15.0551C6.33198 12.8114 7.28747 10.7006 8.85247 9.08236C10.4175 7.46414 12.4952 6.43862 14.7315 6.18054C16.9679 5.92247 19.2245 6.4478 21.117 7.66703L22.0563 6.2091Z" stroke="white" stroke-width="2" mask="url(#path-1-inside-1_2571_4801)"/>
<path d="M12 13L16.9497 17.9497L27.5572 7.34326" stroke="white" stroke-width="2" stroke-linecap="round" stroke-linejoin="round"/>
</svg>
