<svg width="14" height="14" viewBox="0 0 14 14" fill="none" xmlns="http://www.w3.org/2000/svg">
<path d="M11.6663 7.58343C11.6663 10.5001 9.62467 11.9584 7.19801 12.8043C7.07094 12.8473 6.9329 12.8453 6.80717 12.7984C4.37467 11.9584 2.33301 10.5001 2.33301 7.58343V3.5001C2.33301 3.34539 2.39447 3.19702 2.50386 3.08762C2.61326 2.97822 2.76163 2.91677 2.91634 2.91677C4.08301 2.91677 5.54134 2.21677 6.55634 1.3301C6.67992 1.22452 6.83713 1.1665 6.99967 1.1665C7.16222 1.1665 7.31943 1.22452 7.44301 1.3301C8.46384 2.2226 9.91634 2.91677 11.083 2.91677C11.2377 2.91677 11.3861 2.97822 11.4955 3.08762C11.6049 3.19702 11.6663 3.34539 11.6663 3.5001V7.58343Z" stroke="#652D8E" stroke-width="1.16667" stroke-linecap="round" stroke-linejoin="round"/>
<path d="M5.25 6.99992L6.41667 8.16659L8.75 5.83325" stroke="#652D8E" stroke-width="1.16667" stroke-linecap="round" stroke-linejoin="round"/>
</svg>
